<!--?xml version="1.0" encoding="UTF-8"?-->
<svg xmlns="http://www.w3.org/2000/svg" width="320" height="220" viewBox="0 0 320 220" preserveAspectRatio="xMidYMid meet" role="img" aria-label="Aide rapide : suis-je concerné ?">

  <defs>
    <linearGradient id="bg" x1="0" y1="0" x2="1" y2="1">
      <stop offset="0" stop-color="#EEF4FF"></stop>
      <stop offset="1" stop-color="#F6F8FF"></stop>
    </linearGradient>
    <filter id="shadow" x="-20%" y="-20%" width="140%" height="140%">
      <feDropShadow dx="0" dy="6" stdDeviation="10" flood-color="#101326" flood-opacity="0.14"></feDropShadow>
    </filter>
  </defs>

  <!-- background blob (compact) -->
  <path d="M28 138c-14-42 8-98 58-114 56-18 76 12 114 6 40-6 76-36 108-10 30 24 24 66 10 98-12 28-34 38-56 56-22 18-38 40-78 40s-58-24-92-30c-28-4-48 6-64-46z" fill="url(#bg)"></path>

  <!-- main card -->
  <g filter="url(#shadow)">
    <rect x="86" y="36" width="148" height="160" rx="18" fill="#FFFFFF" stroke="#D9E5FF"></rect>
  </g>

  <!-- header -->
  <rect x="104" y="54" width="92" height="12" rx="6" fill="#E6ECFF"></rect>
  <circle cx="212" cy="60" r="9" fill="#E6ECFF"></circle>
  <path d="M209 60h6" stroke="#A7AEC8" stroke-width="2" stroke-linecap="round"></path>
  <path d="M212 57v6" stroke="#A7AEC8" stroke-width="2" stroke-linecap="round"></path>

  <!-- rows -->
  <g stroke="#1F3A8A" stroke-width="2.4" stroke-linecap="round" stroke-linejoin="round" fill="none">
    <!-- row 1 -->
    <circle cx="108" cy="88" r="7" fill="#EEF4FF" stroke="none"></circle>
    <path d="M105.5 88.2l2.0 2.0 4.6-4.8"></path>
    <rect x="120" y="82" width="86" height="12" rx="6" fill="#EEF4FF" stroke="none"></rect>

    <!-- row 2 -->
    <circle cx="108" cy="114" r="7" fill="#EEF4FF" stroke="none"></circle>
    <path d="M105.5 114.2l2.0 2.0 4.6-4.8"></path>
    <rect x="120" y="108" width="76" height="12" rx="6" fill="#EEF4FF" stroke="none"></rect>

    <!-- row 3 (question) -->
    <circle cx="108" cy="140" r="7" fill="#EEF4FF" stroke="none"></circle>
    <path d="M106.7 138.4c.1-1.7 1.5-2.9 3.3-2.9 1.8 0 3.2 1.1 3.2 2.7 0 1.1-.6 1.9-2.0 2.6-.8.4-1.2.8-1.2 1.8v.2"></path>
    <circle cx="110" cy="148.3" r="1.2" fill="#1F3A8A" stroke="none"></circle>
    <rect x="120" y="134" width="92" height="12" rx="6" fill="#F1F5FF" stroke="none"></rect>
  </g>

  <!-- small CTA bar -->
  <rect x="104" y="160" width="92" height="20" rx="10" fill="#1D4ED8"></rect>
  <rect x="118" y="169" width="46" height="3.6" rx="1.8" fill="#FFFFFF" opacity="0.95"></rect>
  <circle cx="172" cy="171" r="3" fill="#FFFFFF" opacity="0.95"></circle>

  <!-- magnifier badge (bigger, but within viewBox) -->
  <g transform="translate(212 132)">
    <circle cx="44" cy="44" r="34" fill="#1F3A8A"></circle>
    <circle cx="38" cy="38" r="12" fill="none" stroke="#FFFFFF" stroke-width="3.4"></circle>
    <path d="M46 46l14 14" stroke="#FFFFFF" stroke-width="3.4" stroke-linecap="round"></path>
  </g>
</svg>
