<?xml version="1.0" encoding="UTF-8"?>
<svg xmlns="http://www.w3.org/2000/svg" width="128" height="128"
     viewBox="0 0 128 128" fill="none">
  <defs>
    <linearGradient id="g2" x1="18" y1="18" x2="110" y2="118" gradientUnits="userSpaceOnUse">
      <stop stop-color="#1E2A5A"/>
      <stop offset="1" stop-color="#3B4AA0"/>
    </linearGradient>
    <linearGradient id="g2b" x1="24" y1="24" x2="112" y2="112" gradientUnits="userSpaceOnUse">
      <stop stop-color="#ECF2FF"/>
      <stop offset="1" stop-color="#DAE6FF"/>
    </linearGradient>
  </defs>

  <rect x="10" y="10" width="108" height="108" rx="26" fill="#F3F6FF"/>
  <rect x="18" y="18" width="92" height="92" rx="22" fill="url(#g2b)"/>

  <path d="M34 36c0-8.8 7.2-16 16-16h34c8.8 0 16 7.2 16 16v14c0 8.8-7.2 16-16 16H63l-14 10c-2 1.4-5 .2-5-2.3V66c-6.2-2.5-10-8.5-10-16V36z"
        fill="url(#g2)"/>

  <circle cx="58" cy="48" r="8" fill="#FFFFFF" opacity="0.95"/>
  <circle cx="78" cy="48" r="7" fill="#FFFFFF" opacity="0.85"/>

  <path d="M46 66c2.2-9.5 23.8-9.5 26 0" fill="#FFFFFF" opacity="0.95"/>
  <path d="M70 66c1.8-7.5 17.2-7.5 19 0" fill="#FFFFFF" opacity="0.85"/>

  <rect x="44" y="30" width="18" height="5" rx="2.5" fill="#FFCC66"/>
  <rect x="66" y="30" width="18" height="5" rx="2.5" fill="#FFCC66" opacity="0.85"/>
</svg>
