<?xml version="1.0" encoding="UTF-8"?>
<svg xmlns="http://www.w3.org/2000/svg" width="128" height="128"
     viewBox="0 0 128 128" fill="none">
  <defs>
    <linearGradient id="g4" x1="18" y1="18" x2="110" y2="118" gradientUnits="userSpaceOnUse">
      <stop stop-color="#1E2A5A"/>
      <stop offset="1" stop-color="#3B4AA0"/>
    </linearGradient>
    <linearGradient id="g4b" x1="26" y1="26" x2="108" y2="108" gradientUnits="userSpaceOnUse">
      <stop stop-color="#ECF2FF"/>
      <stop offset="1" stop-color="#DAE6FF"/>
    </linearGradient>
  </defs>

  <rect x="10" y="10" width="108" height="108" rx="26" fill="#F3F6FF"/>
  <rect x="18" y="18" width="92" height="92" rx="22" fill="url(#g4b)"/>

  <path d="M30 44c0-6.6 5.4-12 12-12h12l6 6h26c6.6 0 12 5.4 12 12v34c0 8.8-7.2 16-16 16H46c-8.8 0-16-7.2-16-16V44z"
        fill="url(#g4)"/>

  <path d="M30 54h68" stroke="#FFFFFF" stroke-width="3" opacity="0.35"/>

  <circle cx="86" cy="82" r="16" fill="#FFCC66"/>
  <path d="M86 90V76" stroke="#1E2A5A" stroke-width="4" stroke-linecap="round"/>
  <path d="M80 82l6-6 6 6" stroke="#1E2A5A" stroke-width="4" stroke-linecap="round" stroke-linejoin="round"/>

  <rect x="38" y="64" width="26" height="30" rx="8" fill="#FFFFFF" opacity="0.92"/>
  <rect x="42" y="70" width="18" height="5" rx="2.5" fill="#1E2A5A" opacity="0.35"/>
  <rect x="42" y="80" width="14" height="5" rx="2.5" fill="#1E2A5A" opacity="0.22"/>
</svg>
