<?xml version="1.0" encoding="UTF-8"?>
<svg xmlns="http://www.w3.org/2000/svg" width="128" height="128"
     viewBox="0 0 128 128" fill="none">
  <defs>
    <linearGradient id="g3" x1="22" y1="18" x2="110" y2="118" gradientUnits="userSpaceOnUse">
      <stop stop-color="#1E2A5A"/>
      <stop offset="1" stop-color="#2D3A7A"/>
    </linearGradient>
    <linearGradient id="g3b" x1="30" y1="28" x2="104" y2="110" gradientUnits="userSpaceOnUse">
      <stop stop-color="#EAF0FF"/>
      <stop offset="1" stop-color="#D9E4FF"/>
    </linearGradient>
  </defs>

  <rect x="10" y="10" width="108" height="108" rx="26" fill="#F3F6FF"/>
  <rect x="18" y="18" width="92" height="92" rx="22" fill="url(#g3b)"/>

  <path d="M42 30h34l12 12v54c0 8.8-7.2 16-16 16H42c-8.8 0-16-7.2-16-16V46c0-8.8 7.2-16 16-16z"
        fill="url(#g3)"/>
  <path d="M76 30v12h12" fill="#FFCC66"/>

  <rect x="36" y="54" width="44" height="6" rx="3" fill="#FFFFFF" opacity="0.85"/>
  <rect x="36" y="66" width="36" height="6" rx="3" fill="#FFFFFF" opacity="0.65"/>

  <path d="M36 86c10 6 18-6 28 0 6 4 10 2 16-2" stroke="#FFCC66" stroke-width="4" stroke-linecap="round"/>

  <path d="M96 82l-10 10 4 4 10-10-4-4z" fill="#FFFFFF" opacity="0.95"/>
  <path d="M84 96l-2 10 10-2-8-8z" fill="#FFCC66"/>
</svg>
