<?xml version="1.0" encoding="UTF-8"?>
<svg xmlns="http://www.w3.org/2000/svg" width="128" height="128"
     viewBox="0 0 128 128" fill="none">
  <defs>
    <linearGradient id="g1" x1="22" y1="18" x2="110" y2="118" gradientUnits="userSpaceOnUse">
      <stop stop-color="#1E2A5A"/>
      <stop offset="1" stop-color="#2F3B78"/>
    </linearGradient>
    <linearGradient id="g1b" x1="30" y1="30" x2="96" y2="110" gradientUnits="userSpaceOnUse">
      <stop stop-color="#EAF0FF"/>
      <stop offset="1" stop-color="#D9E4FF"/>
    </linearGradient>
  </defs>

  <rect x="10" y="10" width="108" height="108" rx="26" fill="#F3F6FF"/>
  <rect x="18" y="18" width="92" height="92" rx="22" fill="url(#g1b)"/>

  <rect x="30" y="36" width="68" height="52" rx="14" fill="url(#g1)"/>
  <rect x="36" y="42" width="56" height="40" rx="10" fill="#FFFFFF" opacity="0.95"/>

  <circle cx="48" cy="57" r="8" fill="#1E2A5A"/>
  <path d="M38 76c2.6-8 18.4-8 21 0" fill="#1E2A5A"/>

  <rect x="62" y="50" width="24" height="6" rx="3" fill="#1E2A5A" opacity="0.9"/>
  <rect x="62" y="62" width="20" height="6" rx="3" fill="#1E2A5A" opacity="0.65"/>

  <circle cx="92" cy="44" r="10" fill="#FFCC66"/>
  <path d="M87 44l3 3 6-7" stroke="#1E2A5A" stroke-width="3.2" stroke-linecap="round" stroke-linejoin="round"/>
</svg>
